<?xml version="1.0" standalone="no"?>
<!DOCTYPE svg PUBLIC "-//W3C//DTD SVG 20010904//EN"
 "http://www.w3.org/TR/2001/REC-SVG-20010904/DTD/svg10.dtd">
<svg version="1.0" xmlns="http://www.w3.org/2000/svg"
 width="750.000000pt" height="750.000000pt" viewBox="0 0 750.000000 750.000000"
 preserveAspectRatio="xMidYMid meet">
<metadata>
Created by potrace 1.11, written by Peter Selinger 2001-2013
</metadata>
<g transform="translate(0.000000,750.000000) scale(0.100000,-0.100000)"
fill="#000000" stroke="none">
<path d="M3519 7486 c-2 -2 -43 -6 -90 -10 -47 -4 -95 -8 -106 -10 -11 -2 -45
-7 -75 -10 -145 -16 -370 -64 -563 -121 -1082 -319 -1982 -1135 -2405 -2180
-76 -187 -156 -437 -176 -549 -3 -16 -7 -32 -9 -36 -2 -4 -7 -22 -10 -41 -3
-19 -12 -68 -20 -109 -8 -41 -16 -91 -19 -110 -2 -19 -7 -55 -11 -80 -13 -99
-15 -119 -22 -220 -13 -192 -7 -523 12 -663 2 -18 7 -57 10 -87 4 -30 9 -64
11 -75 2 -11 5 -36 8 -55 2 -19 7 -46 10 -60 3 -14 8 -36 10 -50 2 -14 9 -45
15 -70 5 -25 12 -56 14 -70 9 -50 80 -284 117 -388 297 -833 884 -1539 1650
-1985 115 -67 316 -167 423 -212 48 -19 100 -41 115 -47 15 -6 32 -12 37 -14
6 -2 57 -19 115 -39 89 -30 242 -75 308 -90 70 -16 213 -46 242 -50 19 -3 46
-8 60 -10 14 -3 48 -8 75 -11 28 -3 61 -8 75 -10 177 -26 679 -26 865 1 22 4
54 8 70 10 61 7 130 17 136 21 3 1 28 6 55 10 27 3 52 8 55 10 3 2 21 6 40 9
98 17 359 93 496 144 408 151 800 380 1134 661 94 78 364 351 446 450 250 302
456 641 589 969 19 47 39 95 44 106 30 63 137 421 156 519 2 12 10 55 19 96
16 80 18 94 34 210 11 75 19 159 27 255 10 137 4 492 -11 616 -15 133 -25 210
-29 229 -1 8 -6 38 -10 65 -13 82 -72 322 -111 450 -178 586 -546 1177 -994
1599 -24 22 -55 52 -70 66 -41 40 -188 161 -276 227 -189 141 -377 255 -610
369 -143 69 -407 177 -464 189 -9 2 -36 11 -60 19 -24 9 -53 18 -65 20 -12 3
-52 13 -91 24 -165 45 -363 82 -520 97 -38 4 -83 9 -100 12 -34 5 -551 14
-556 9z m541 -160 c14 -2 54 -7 90 -10 36 -4 76 -8 90 -11 82 -14 158 -27 180
-29 14 -2 43 -8 65 -14 22 -6 56 -13 75 -17 19 -3 42 -8 50 -10 8 -2 17 -4 19
-4 1 -1 -23 -15 -55 -31 -177 -94 -258 -198 -263 -341 -3 -73 23 -155 60 -195
l22 -23 -31 -95 c-36 -112 -131 -346 -141 -346 -3 0 -7 26 -8 58 -1 31 -11 84
-22 117 -19 57 -19 61 -2 75 59 51 77 150 40 226 -22 43 -113 144 -130 144
-12 0 -59 -90 -74 -144 -17 -58 -13 -100 11 -152 17 -36 85 -94 109 -94 8 0
13 -18 14 -47 5 -119 6 -199 3 -206 -2 -5 -15 7 -27 26 -26 37 -89 72 -151 82
-21 4 -47 9 -58 12 -17 5 -18 1 -12 -63 7 -76 32 -139 67 -170 31 -27 98 -52
126 -48 21 3 22 2 12 -24 -6 -15 -41 -92 -79 -172 -95 -200 -113 -258 -113
-355 -1 -70 4 -91 37 -170 98 -234 108 -312 57 -422 -46 -98 -193 -234 -270
-249 -56 -12 -131 65 -200 204 l-22 43 28 -8 c47 -13 139 -6 185 15 25 11 60
35 79 54 51 51 107 172 124 266 l5 32 -117 -4 c-135 -4 -191 -20 -250 -71 -41
-34 -83 -105 -86 -143 -3 -52 -21 -9 -52 130 -31 138 -21 208 47 321 54 90 50
88 115 55 64 -32 115 -32 180 -1 36 17 133 117 133 137 0 29 -164 80 -225 70
l-35 -5 30 44 c76 113 144 277 171 412 11 57 7 401 -6 572 l-5 62 32 -13 c62
-26 149 -6 190 43 33 39 80 143 70 153 -6 6 -45 11 -89 13 -85 3 -116 -8 -167
-54 l-28 -26 7 25 c24 76 -9 189 -73 257 -35 36 -164 101 -217 110 -20 3 -38
9 -40 13 -5 8 483 5 525 -4z m-589 -82 c1 -46 2 -87 3 -91 28 -125 43 -157 98
-210 68 -66 216 -101 264 -62 10 7 15 9 11 2 -4 -7 -10 -54 -13 -105 -3 -51
-7 -113 -9 -138 -2 -25 -4 -52 -4 -59 -1 -8 -12 8 -26 36 -75 150 -232 197
-477 142 -29 -7 -48 -16 -48 -25 0 -16 48 -116 81 -171 32 -52 86 -110 126
-134 81 -50 202 -57 285 -16 l48 24 -6 -61 c-8 -82 -22 -184 -29 -221 -8 -37
-25 -57 -25 -29 0 35 -38 101 -76 132 -45 38 -121 62 -208 66 l-69 4 6 -51 c7
-66 41 -159 73 -197 28 -33 82 -68 116 -76 27 -7 98 -5 110 2 46 29 -164 -280
-271 -397 l-28 -30 -2 98 c-2 97 -3 115 -15 183 -28 157 -148 398 -300 604
-56 75 -66 93 -45 81 20 -13 116 46 149 92 66 91 70 172 19 331 -11 34 -23 62
-26 62 -17 0 -130 -78 -169 -118 -60 -59 -85 -117 -85 -190 l0 -56 -54 59 -53
59 21 40 c25 48 27 138 3 184 -24 47 -85 101 -146 130 l-55 26 90 28 c50 16
99 30 110 32 11 2 38 9 60 14 22 6 51 13 65 16 14 3 36 7 50 10 45 10 75 16
105 20 17 3 44 7 60 10 17 3 50 8 75 11 82 10 135 17 137 19 1 0 18 2 37 2
l36 1 1 -83z m1399 -86 c131 -43 336 -126 452 -183 54 -27 97 -50 95 -51 -1
-1 -20 -4 -42 -7 -78 -11 -134 -32 -172 -65 -50 -44 -75 -131 -57 -199 8 -30
54 -47 108 -39 105 16 172 107 181 244 2 24 6 46 9 49 11 11 340 -196 460
-289 73 -56 73 -57 51 -58 -86 -5 -232 -68 -273 -119 -53 -65 -76 -174 -53
-250 6 -19 10 -36 8 -37 -10 -10 -122 -83 -124 -81 -1 2 4 23 11 47 18 62 12
150 -14 202 -32 63 -103 123 -205 174 -50 24 -94 44 -97 44 -13 0 -39 -138
-42 -220 -5 -140 77 -256 206 -295 l41 -12 -79 -33 c-62 -26 -247 -89 -262
-90 -2 0 5 12 16 28 58 85 59 164 1 288 -39 86 -49 91 -87 52 -56 -59 -72 -80
-98 -136 -21 -45 -25 -63 -20 -108 6 -59 28 -109 59 -136 19 -17 19 -18 -9
-28 -95 -35 -145 -59 -220 -106 l-84 -53 0 27 c1 104 109 403 170 470 31 34
108 139 162 222 31 47 66 94 78 105 76 68 66 229 -20 312 -37 36 -149 97 -196
107 -38 8 -41 1 -50 -119 -13 -167 63 -284 198 -304 l37 -6 -36 -40 c-19 -22
-49 -56 -67 -75 -17 -19 -43 -49 -57 -67 l-26 -31 -6 50 c-8 68 -49 133 -104
168 -46 29 -156 60 -213 60 -34 0 -33 4 -15 -92 29 -150 118 -242 237 -243 29
0 44 -4 39 -10 -4 -5 -21 -28 -38 -50 -17 -22 -48 -75 -70 -118 -35 -68 -41
-76 -47 -55 -13 49 -81 103 -141 111 -29 4 -141 -9 -155 -18 -13 -8 46 -105
86 -142 20 -18 52 -35 72 -39 20 -4 44 -8 53 -10 9 -1 29 4 44 12 25 13 27 13
22 -3 -28 -93 -68 -257 -73 -292 -4 -33 -20 -65 -64 -125 -68 -95 -113 -173
-181 -313 -27 -57 -51 -103 -54 -103 -2 0 -2 7 1 15 9 23 -13 79 -92 239 -76
152 -90 193 -56 164 46 -41 175 -49 237 -15 60 33 115 98 164 194 27 54 27 60
-6 67 -16 4 -41 10 -58 13 -16 4 -68 7 -115 8 -75 0 -90 -3 -132 -27 -25 -16
-59 -43 -73 -60 -17 -21 -24 -26 -20 -13 4 11 17 50 30 86 30 87 117 290 153
359 29 56 68 166 97 275 21 78 20 77 40 170 9 44 17 80 18 81 1 1 23 4 49 7
137 16 252 149 261 300 4 63 -13 179 -33 232 -6 15 -10 30 -10 35 0 10 52 -4
200 -52z m-2275 -42 c-12 -64 -12 -141 0 -183 24 -79 93 -140 173 -151 l45 -7
94 -140 c118 -175 119 -176 96 -168 -10 3 -23 10 -29 14 -5 5 -35 7 -66 5 -59
-3 -132 -37 -183 -84 l-28 -26 39 -34 c55 -49 137 -85 190 -84 52 1 117 33
140 67 16 24 17 24 29 8 16 -23 77 -143 105 -208 13 -27 25 -54 28 -59 3 -6
-8 -1 -24 11 -68 48 -165 60 -251 33 -49 -16 -161 -75 -195 -103 l-27 -22 23
-26 c41 -48 140 -122 196 -147 98 -43 227 -26 297 40 13 12 23 17 24 12 1 -5
3 -27 5 -49 7 -56 7 -318 1 -515 -6 -173 0 -222 42 -373 11 -42 21 -80 21 -82
0 -11 -201 102 -276 154 l-77 53 36 13 c54 19 103 60 134 113 24 40 28 58 27
117 0 70 -35 208 -54 220 -5 3 -36 -11 -67 -32 -123 -82 -176 -160 -174 -260
0 -29 3 -58 6 -63 3 -6 4 -10 1 -10 -8 0 -55 96 -82 168 -21 55 -77 259 -91
332 -3 14 -6 30 -7 35 -1 6 -8 37 -15 70 -56 260 -123 446 -200 559 -17 24
-31 46 -31 49 0 2 14 4 31 5 47 1 119 51 152 104 23 37 29 58 30 110 1 65 -18
174 -32 183 -17 10 -118 -52 -172 -105 -46 -45 -58 -65 -64 -100 -11 -58 -7
-110 8 -130 7 -8 -7 2 -30 22 -23 20 -51 41 -62 48 -18 9 -21 17 -16 43 12 61
12 72 3 112 -12 57 -32 95 -68 132 -39 40 -76 59 -164 87 l-69 22 114 56 c166
81 432 195 462 197 4 1 5 -14 2 -33z m-639 -294 c5 -120 38 -216 90 -266 58
-56 170 -87 232 -65 19 7 28 3 55 -28 38 -42 103 -137 91 -131 -108 53 -161
48 -270 -25 l-31 -21 31 -31 c99 -101 203 -119 283 -50 l37 32 18 -40 c23 -51
73 -211 94 -302 17 -76 19 -85 30 -160 l7 -50 -38 50 c-155 203 -380 355 -625
421 -36 10 -67 19 -69 21 -3 2 6 14 18 27 27 29 49 99 46 147 -4 56 -33 106
-98 171 -68 68 -65 69 -114 -39 -47 -102 -43 -175 12 -248 l35 -45 -38 6 c-48
8 -48 8 -55 42 -7 36 -71 102 -123 128 -50 24 -187 24 -254 0 -45 -17 -45 -17
-25 3 116 112 345 291 513 397 64 42 121 79 126 84 13 13 21 3 22 -28z m4078
-304 c7 -7 46 -42 87 -78 177 -155 361 -354 504 -545 107 -142 265 -389 265
-414 0 -5 -19 -5 -42 1 -66 15 -189 12 -251 -6 -116 -34 -212 -156 -208 -268
1 -38 -10 -46 -85 -63 -10 -2 -30 -7 -44 -11 l-25 -7 21 24 c36 42 53 76 61
121 4 24 7 45 6 48 -1 3 -4 22 -7 43 -7 45 -55 152 -83 186 l-20 24 -37 -39
c-139 -145 -163 -279 -72 -399 17 -22 22 -35 14 -36 -7 0 -24 -2 -38 -4 -42
-7 -193 -7 -230 -1 -28 5 -244 62 -309 82 -9 3 -3 11 17 22 18 9 55 36 82 60
41 35 50 40 50 24 0 -23 25 -47 70 -66 40 -16 87 -13 130 9 36 18 110 88 110
103 0 16 -99 61 -145 65 -22 3 -51 0 -64 -5 -32 -12 -34 -7 -10 22 36 46 114
158 154 224 31 50 45 64 60 62 11 -2 45 4 76 14 146 45 213 164 198 353 -9
116 -14 128 -47 121 -41 -9 -184 -81 -212 -106 -99 -89 -129 -213 -79 -327 24
-58 29 -45 -53 -136 -20 -22 -46 -51 -58 -65 -18 -20 -20 -21 -14 -5 14 36 16
111 4 154 -16 61 -79 125 -164 166 -104 50 -112 51 -121 18 -13 -52 -12 -187
1 -233 25 -83 123 -159 205 -160 l34 -1 -80 -75 c-87 -82 -153 -124 -239 -154
-54 -18 -71 -15 -42 9 17 15 31 66 27 101 -4 30 -49 130 -60 130 -10 0 -53
-48 -76 -85 -27 -43 -26 -115 2 -154 13 -16 19 -32 15 -34 -11 -7 -62 -17
-112 -22 -25 -2 -63 -7 -85 -10 l-39 -6 21 23 c29 31 63 109 65 150 3 55 -12
109 -46 162 -32 50 -132 156 -148 156 -26 0 -102 -165 -111 -238 -10 -92 39
-196 114 -243 l39 -23 -38 -15 c-20 -8 -63 -31 -94 -51 l-57 -38 2 43 c3 104
-90 192 -232 220 -18 3 -21 -1 -22 -28 -5 -128 6 -177 49 -224 30 -33 89 -63
123 -63 l23 0 -21 -20 c-12 -11 -43 -50 -69 -87 -124 -176 -203 -271 -334
-403 -121 -122 -162 -155 -229 -188 -65 -30 -113 -32 -141 -7 -26 24 -28 130
-3 183 10 21 79 100 154 178 149 153 214 242 254 349 15 39 38 94 51 123 13
29 24 55 24 57 0 10 85 183 118 239 80 137 278 294 455 360 l67 26 0 -24 c0
-43 42 -106 88 -133 38 -23 51 -25 120 -21 43 2 85 9 95 14 16 9 15 14 -9 62
-28 56 -83 117 -114 127 -22 7 -27 22 -7 22 23 0 156 71 220 117 34 24 87 68
117 97 54 53 55 54 107 51 126 -9 235 70 273 197 12 38 22 96 23 130 2 62 8
71 31 49z m-4783 -244 c20 -38 125 -132 167 -150 84 -35 188 -19 253 39 31 27
33 28 88 16 64 -13 233 -67 243 -77 4 -4 -12 -8 -35 -9 -56 -3 -122 -38 -158
-84 -54 -69 -112 -220 -90 -233 21 -13 196 -8 239 7 99 35 159 106 169 201 l6
55 57 -37 c32 -20 79 -55 105 -77 l48 -39 -34 -9 c-48 -12 -99 -54 -116 -96
-18 -41 -25 -157 -11 -183 5 -11 15 -15 26 -11 62 22 125 57 151 83 31 33 55
107 44 136 -14 36 17 1 71 -79 64 -97 124 -216 196 -387 55 -133 91 -202 119
-235 10 -11 32 -40 49 -65 46 -67 119 -140 212 -212 19 -15 78 -59 130 -99
176 -136 423 -409 451 -499 6 -19 13 -58 16 -85 4 -41 1 -54 -14 -68 -18 -16
-21 -16 -59 9 -21 14 -50 40 -63 57 -54 72 -183 163 -351 247 -148 75 -269
159 -399 277 -29 27 -32 33 -17 33 27 0 83 45 102 81 16 32 21 90 10 130 -12
40 -39 99 -46 99 -16 0 -118 -102 -130 -129 -7 -17 -10 -49 -8 -71 2 -22 1
-40 -2 -40 -3 1 -23 29 -45 63 -46 70 -203 282 -233 313 l-21 22 44 16 c52 20
108 79 125 131 16 50 3 215 -19 238 -11 11 -123 -50 -166 -90 -44 -41 -78
-116 -73 -160 2 -18 2 -33 0 -33 -2 0 -31 25 -65 55 -143 130 -317 223 -525
281 l-131 37 32 21 c48 32 80 100 73 159 -6 52 -61 167 -81 167 -18 0 -80 -71
-105 -119 -26 -51 -26 -116 0 -158 23 -39 20 -40 -31 -11 -29 16 -38 26 -32
38 15 34 15 122 -2 166 -29 75 -137 148 -251 170 -29 6 -32 4 -37 -28 -8 -43
-1 -134 13 -187 22 -81 110 -152 195 -156 41 -2 72 -14 97 -37 30 -28 136 -81
256 -128 134 -53 282 -133 282 -152 0 -4 -12 -3 -26 2 -38 15 -127 35 -199 46
-22 3 -58 9 -80 13 -49 8 -216 7 -269 -3 l-38 -7 16 23 c25 36 20 89 -13 136
-16 22 -34 43 -39 46 -13 8 -62 -86 -62 -119 0 -28 16 -66 34 -77 15 -10 8
-13 -72 -30 l-74 -16 8 26 c13 43 13 110 1 150 -17 55 -91 122 -170 155 -79
32 -96 33 -98 10 -8 -84 -6 -188 3 -218 16 -51 70 -110 120 -130 l43 -17 -53
-14 c-52 -14 -54 -13 -86 11 -39 30 -127 54 -180 49 -66 -7 -126 -41 -192
-110 l-62 -65 78 148 c120 230 242 415 405 618 79 97 253 285 264 285 4 0 14
-12 22 -26z m5728 -956 c69 -147 146 -337 184 -455 34 -105 87 -294 87 -311 0
-5 -33 -3 -72 5 -100 19 -214 11 -281 -20 -90 -41 -173 -149 -182 -233 -1 -20
-5 -36 -6 -37 -2 -2 -27 -12 -56 -24 l-51 -21 19 32 c34 56 18 143 -42 228
l-22 30 -34 -39 c-47 -53 -74 -108 -75 -152 0 -45 27 -108 54 -122 16 -9 3
-20 -99 -81 -65 -39 -171 -106 -235 -150 -65 -43 -120 -78 -123 -78 -3 0 2 14
11 32 24 47 14 123 -26 203 -47 93 -51 94 -100 44 -89 -92 -118 -180 -85 -264
9 -25 30 -56 47 -70 29 -25 30 -27 12 -40 -41 -30 -174 -96 -230 -114 -65 -21
-112 -28 -224 -37 -41 -3 -79 -8 -85 -11 -5 -2 7 10 28 28 22 18 50 50 64 72
46 74 31 200 -39 315 l-20 32 -26 -19 c-49 -34 -104 -95 -133 -146 -48 -83
-34 -203 31 -262 l21 -21 -43 -4 c-24 -3 -189 -4 -368 -3 -437 3 -501 16 -508
101 -7 82 81 186 217 258 78 41 177 62 152 32 -7 -9 -15 -40 -16 -70 -5 -97
42 -163 152 -213 28 -13 64 -25 80 -26 l28 -2 1 90 c3 128 -31 195 -116 233
l-35 16 55 7 c30 4 89 10 130 14 41 3 86 8 100 10 14 2 52 6 85 10 33 3 78 8
100 11 71 9 269 45 310 56 22 6 45 12 50 14 44 9 187 64 270 103 162 77 354
206 480 322 22 21 52 49 68 63 23 21 32 24 52 16 53 -20 156 5 220 54 56 43
109 171 117 286 l3 45 -55 -3 c-30 -2 -73 -7 -95 -13 -22 -5 -48 -11 -57 -14
-66 -15 -136 -73 -170 -139 -23 -46 -34 -130 -20 -166 10 -28 13 -25 -102
-104 -46 -32 -66 -42 -61 -30 40 97 40 148 -1 224 -15 28 -49 74 -76 103 l-48
52 -20 -25 c-29 -36 -78 -139 -88 -185 -17 -79 29 -186 95 -222 26 -14 30 -20
20 -29 -15 -14 -211 -116 -253 -132 -16 -6 -60 -22 -99 -37 -91 -34 -220 -62
-317 -69 l-77 -6 33 48 c18 27 59 96 91 155 l58 107 25 -39 c55 -85 169 -99
272 -34 l31 19 -56 56 c-73 75 -132 93 -210 64 -20 -8 61 72 125 123 26 21 41
26 60 21 67 -17 139 32 160 111 16 58 10 67 -42 62 -88 -9 -148 -59 -150 -122
-1 -25 -7 -35 -26 -42 -13 -5 -37 -18 -52 -29 -31 -22 -45 -26 -34 -9 3 6 6
31 6 56 -2 69 -43 122 -134 169 -26 13 -49 24 -52 24 -18 0 -29 -158 -14 -201
13 -38 64 -87 99 -94 34 -8 35 -12 12 -34 -10 -9 -37 -37 -60 -63 -44 -48 -53
-50 -53 -11 0 36 -34 96 -74 131 -40 35 -112 59 -195 66 -71 5 -83 0 -76 -33
3 -14 7 -37 10 -50 13 -72 52 -148 94 -185 29 -26 114 -54 156 -50 19 1 35 0
35 -2 0 -11 -77 -113 -107 -141 -72 -70 -107 -82 -244 -88 -68 -3 -137 -7
-154 -9 -26 -3 -28 -2 -11 8 77 44 152 145 162 218 3 18 7 38 9 44 12 38 -72
334 -95 334 -4 0 -38 -22 -76 -49 -85 -59 -163 -143 -194 -208 -46 -96 -27
-248 40 -322 34 -37 34 -38 18 -38 -41 -1 -141 -17 -176 -27 -9 -3 -29 -7 -44
-10 -98 -17 -326 -114 -427 -182 -26 -17 -38 -21 -48 -13 -9 8 -10 16 -2 30
12 24 101 112 209 209 133 119 207 199 267 289 153 229 297 394 409 468 28 19
94 50 145 69 118 45 217 51 329 22 72 -19 85 -22 140 -33 228 -46 533 -9 723
87 38 19 39 19 81 -2 94 -45 228 -33 309 27 47 36 104 112 142 191 17 34 32
62 35 62 3 0 25 -42 49 -92z m-5365 56 c214 -32 409 -109 535 -211 85 -69 227
-234 306 -355 20 -32 19 -33 -28 -13 -110 46 -311 89 -467 101 -47 3 -86 7
-87 8 -2 1 6 24 16 52 23 63 19 114 -14 170 -26 45 -138 138 -158 131 -19 -6
-49 -111 -50 -172 -1 -68 24 -127 67 -159 33 -24 33 -31 -3 -30 -16 0 -53 -2
-82 -6 -45 -6 -56 -4 -66 10 -37 53 -179 79 -253 47 -51 -22 -115 -81 -162
-149 -46 -69 -48 -66 57 -101 95 -32 180 -34 239 -6 55 26 112 88 128 141 l11
38 106 -4 c58 -3 117 -8 130 -10 13 -3 41 -6 62 -8 22 -1 39 -3 39 -4 0 -2
-15 -10 -34 -19 -19 -9 -47 -34 -62 -56 -23 -34 -27 -50 -27 -107 0 -37 5 -84
12 -104 l12 -38 42 22 c106 54 149 109 149 193 1 30 -5 61 -12 70 -20 24 -5
29 42 16 24 -7 61 -17 83 -22 74 -18 239 -105 335 -176 52 -39 129 -88 170
-109 l75 -38 -34 -9 c-48 -12 -78 -34 -112 -83 -16 -23 -29 -45 -29 -48 0 -7
61 -25 110 -31 57 -7 107 18 136 69 l21 36 64 -41 c108 -70 249 -186 359 -298
94 -95 111 -118 159 -213 29 -59 55 -125 58 -147 6 -43 -7 -71 -31 -67 -13 2
-68 40 -98 68 -33 32 -108 97 -157 138 -29 25 -59 50 -65 55 -88 81 -311 223
-468 299 -161 78 -398 156 -520 171 -22 3 -43 7 -48 10 -14 9 -174 19 -291 19
l-116 0 13 25 c13 27 18 59 16 99 -2 27 -103 132 -126 132 -17 0 -46 -84 -46
-132 0 -43 24 -92 56 -116 l29 -21 -25 -2 c-14 0 -38 -3 -55 -5 -185 -30 -297
-27 -450 11 -60 15 -116 27 -122 28 -20 1 -15 14 6 20 10 2 32 26 47 53 39 66
39 152 1 215 -31 52 -71 96 -114 127 l-31 22 -14 -23 c-39 -60 -67 -152 -64
-212 4 -71 22 -108 73 -153 l38 -32 -70 25 c-38 14 -71 25 -72 25 0 0 1 9 4
19 15 60 -71 168 -152 191 -41 12 -115 10 -174 -4 -30 -7 -93 -27 -104 -33
-13 -8 44 -101 92 -151 25 -26 64 -56 85 -66 54 -26 141 -24 194 3 l41 21 73
-40 c80 -43 256 -104 327 -114 43 -6 69 -16 40 -16 -27 0 -88 -51 -114 -95
-28 -47 -34 -99 -21 -190 11 -76 18 -79 87 -45 73 37 122 80 143 125 24 51 26
118 5 165 -10 23 -14 38 -8 35 5 -4 54 -7 107 -7 85 0 143 4 257 18 17 2 71 6
120 9 l90 6 -42 -21 c-122 -62 -173 -219 -127 -392 7 -27 9 -48 6 -48 -3 0 -1
-5 5 -11 7 -7 17 -7 29 -1 11 5 33 16 49 23 50 22 128 75 163 109 76 76 97
216 45 298 -8 13 -13 26 -10 28 7 7 175 -51 277 -96 336 -148 705 -388 883
-575 52 -54 65 -74 72 -113 14 -81 -31 -87 -165 -24 -139 65 -170 78 -275 120
-82 32 -224 83 -245 87 -3 1 -30 9 -60 19 -30 10 -68 20 -85 23 -16 3 -32 6
-33 8 -2 2 8 24 23 49 65 110 20 233 -123 335 l-29 21 -26 -58 c-29 -67 -44
-118 -41 -149 1 -13 2 -34 3 -47 0 -13 16 -46 35 -73 l34 -50 -47 8 c-46 7
-303 4 -416 -6 -33 -2 -96 -7 -140 -10 -44 -3 -100 -8 -124 -11 l-44 -4 31 31
c53 54 64 127 33 226 -16 53 -19 54 -64 25 -111 -72 -148 -151 -112 -238 18
-43 16 -48 -15 -51 -88 -8 -305 -4 -360 7 -96 18 -95 16 -55 51 111 98 100
239 -31 408 -6 7 -87 -87 -114 -134 -50 -85 -49 -175 1 -247 24 -33 24 -41 2
-28 -10 5 -48 23 -84 39 -63 29 -67 32 -67 64 0 113 -114 216 -240 219 -63 2
-169 -9 -184 -19 -6 -3 -8 3 -5 13 3 11 9 46 13 79 9 77 11 92 19 135 3 19 8
49 11 65 3 17 10 50 15 75 6 25 13 56 15 70 25 131 167 563 201 609 1 2 25 -6
52 -18 67 -28 173 -50 227 -45 108 9 211 101 229 205 3 18 7 35 9 36 4 4 130
30 183 38 l43 6 -53 -53 c-71 -71 -92 -149 -72 -258 10 -53 58 -170 70 -170
16 0 90 53 143 104 112 106 128 265 38 364 l-21 24 119 -3 c66 -2 156 -8 200
-15z m5662 -945 c7 -33 24 -137 30 -176 10 -76 13 -101 19 -153 28 -254 17
-648 -25 -900 -5 -30 -12 -71 -15 -90 -3 -19 -8 -46 -10 -60 -3 -14 -7 -34 -9
-45 -23 -120 -71 -289 -132 -461 l-35 -101 -73 -42 c-60 -34 -236 -106 -236
-97 0 2 -28 -2 -62 -8 -68 -13 -194 -13 -296 -2 -200 22 -574 117 -887 226
-66 23 -131 44 -144 46 -14 3 -28 7 -33 10 -22 14 -123 27 -204 27 -116 0
-193 -27 -318 -111 -161 -108 -173 -114 -249 -120 -61 -4 -73 -2 -133 28 -110
54 -220 187 -240 290 -11 59 -5 170 12 229 38 132 187 283 350 354 80 35 262
81 449 113 83 14 161 27 175 30 14 2 52 8 85 14 225 37 411 98 540 176 32 19
59 34 62 34 2 0 9 4 16 10 7 5 44 33 82 62 66 49 123 98 184 158 32 32 116
100 123 100 3 0 8 -14 12 -30 7 -37 43 -92 79 -120 40 -31 96 -47 159 -44 60
2 168 30 168 42 -1 16 -47 95 -80 137 -41 52 -122 97 -175 97 l-37 0 24 17
c12 9 76 48 141 88 l118 72 36 -25 c74 -50 181 -59 277 -24 74 28 149 103 201
203 22 41 41 74 43 73 1 -2 5 -14 8 -27z m-7041 -495 c56 -73 116 -110 191
-118 48 -4 130 16 151 37 15 14 20 13 60 -14 23 -17 43 -31 43 -32 0 -1 -14
-3 -31 -4 -43 -3 -100 -38 -125 -77 -32 -48 -56 -194 -38 -227 5 -8 122 24
161 45 67 34 109 115 100 192 l-4 43 26 -14 c29 -14 140 -52 181 -61 126 -26
199 -33 391 -34 213 -1 266 -3 409 -15 99 -8 269 -33 348 -50 34 -8 74 -17 90
-20 54 -9 300 -84 378 -115 222 -88 444 -230 594 -380 172 -171 217 -283 184
-461 -16 -85 -54 -160 -106 -210 -42 -39 -122 -85 -168 -95 -14 -3 -36 -8 -50
-11 -27 -6 -216 -6 -240 0 -8 2 -33 7 -55 11 -22 5 -62 14 -90 22 -27 7 -61
15 -75 18 -14 3 -36 7 -50 10 -26 6 -78 14 -131 21 -19 2 -92 11 -164 20 -299
36 -410 62 -834 194 -145 45 -237 72 -306 88 -54 12 -148 14 -191 4 -27 -6
-58 -13 -69 -15 -48 -10 -180 -63 -304 -123 -73 -35 -134 -63 -135 -61 -2 2
-21 62 -44 133 -65 205 -100 349 -137 571 -3 18 -7 52 -10 75 -3 24 -7 60 -10
79 -19 144 -24 642 -7 674 3 5 13 -8 23 -29 10 -20 30 -53 44 -71z m816 -1359
c10 -4 31 -9 46 -11 26 -5 258 -65 383 -100 30 -9 62 -17 70 -19 8 -2 27 -8
43 -14 15 -6 38 -13 50 -15 12 -2 65 -17 117 -34 52 -16 121 -38 154 -47 40
-12 54 -20 45 -26 -13 -8 -106 -39 -139 -45 -185 -39 -224 -39 -455 6 -55 10
-111 21 -125 24 -14 2 -59 11 -100 19 -141 29 -194 31 -242 9 -34 -15 -156
-99 -178 -122 -3 -3 -34 -30 -70 -60 -36 -30 -68 -59 -72 -65 -7 -10 -141 258
-153 307 -6 23 -1 30 37 54 59 38 213 117 268 138 72 27 138 33 223 19 43 -7
87 -15 98 -18z m4519 -233 c105 -31 216 -97 258 -154 7 -9 18 -23 25 -30 7 -7
28 -39 47 -71 33 -55 121 -147 165 -174 57 -33 -168 39 -380 121 -204 80 -392
138 -490 151 -22 3 -67 9 -99 14 -32 4 -82 7 -109 6 l-50 -1 44 39 c51 46 137
91 212 112 72 21 288 13 377 -13z m1435 -114 c-58 -121 -140 -198 -297 -281
-150 -79 -217 -87 -338 -45 -167 59 -180 69 -297 228 -73 99 -138 170 -156
170 -6 0 -8 2 -5 6 3 3 43 -7 88 -21 45 -15 87 -28 93 -29 7 -2 30 -8 52 -14
22 -6 54 -14 70 -17 17 -3 42 -7 57 -10 143 -27 332 -27 438 -1 136 33 329
109 331 130 1 6 3 4 6 -5 2 -9 -17 -59 -42 -111z m-5952 -23 c16 -3 83 -19
150 -34 67 -16 136 -32 152 -34 17 -3 53 -10 80 -16 87 -17 167 -24 265 -24
94 0 219 9 250 17 8 3 37 7 64 11 27 3 52 8 55 10 39 23 375 23 531 0 123 -18
167 -34 212 -77 34 -32 38 -40 28 -58 -6 -12 -32 -30 -57 -41 -46 -19 -282
-94 -326 -103 -42 -9 -122 -25 -147 -31 -105 -23 -290 -23 -400 0 -14 3 -38 8
-55 11 -112 20 -439 121 -470 144 -5 4 -41 18 -80 29 -175 54 -322 10 -497
-150 l-74 -67 -52 81 c-74 119 -74 110 -6 176 64 62 151 130 199 156 29 16 97
16 178 0z m4329 -244 c24 -10 75 -38 114 -63 117 -74 141 -81 269 -83 107 -1
115 -3 149 -29 43 -32 72 -85 87 -158 11 -50 54 -108 81 -108 6 0 24 -6 41
-14 18 -7 61 -24 97 -37 91 -31 130 -52 168 -89 l33 -31 -32 -37 c-43 -50
-172 -178 -237 -235 l-53 -47 -76 97 c-148 190 -262 286 -468 392 -54 29 -108
59 -118 69 -40 36 -133 246 -140 319 -5 42 7 73 28 73 7 0 33 -8 57 -19z
m-4159 -45 c18 -7 54 -33 81 -57 164 -150 369 -246 534 -252 28 -1 52 -4 52
-8 0 -12 -96 -103 -153 -145 -98 -73 -158 -89 -364 -98 -80 -4 -100 -9 -164
-40 l-73 -36 -34 37 c-111 123 -232 275 -299 374 l-31 45 66 51 c98 74 139 97
212 121 77 24 129 27 173 8z m3801 -28 c104 -53 188 -170 216 -303 48 -228 55
-241 205 -370 160 -138 163 -145 169 -317 3 -68 9 -142 14 -166 l10 -42 -69
-41 -69 -41 -90 45 c-288 147 -402 272 -405 447 -2 88 -21 139 -92 239 -26 36
-49 68 -52 71 -22 20 -133 154 -159 192 -74 109 -53 212 56 280 79 49 178 51
266 6z m1790 -16 c-11 -15 -23 -34 -26 -42 -6 -15 -186 -271 -197 -280 -3 -3
-19 -22 -34 -42 -44 -59 -97 -114 -97 -101 0 19 -85 72 -184 115 -110 47 -136
72 -130 125 6 52 42 106 63 97 28 -12 208 -14 243 -3 33 11 329 142 358 158
24 14 25 3 4 -27z m-3557 -135 c-4 -104 -21 -152 -70 -193 -40 -34 -55 -39
-167 -58 -96 -16 -128 -20 -235 -31 -33 -3 -71 -8 -85 -10 -14 -3 -41 -7 -60
-10 -67 -10 -95 -16 -145 -32 -55 -17 -159 -82 -216 -135 -47 -43 -191 -173
-232 -209 -86 -76 -341 -239 -373 -239 -11 0 -136 93 -239 178 -58 47 -225
204 -225 212 0 4 18 15 41 25 31 14 69 19 162 21 141 2 190 8 266 29 125 35
163 54 329 162 177 115 220 129 447 148 161 14 261 29 345 54 116 34 381 139
413 164 18 14 35 23 40 20 4 -2 6 -46 4 -96z m438 32 c31 -38 44 -85 51 -185
7 -92 -11 -178 -52 -259 -21 -40 -159 -223 -185 -245 -3 -3 -25 -34 -48 -69
-47 -68 -85 -155 -95 -211 -26 -151 -26 -411 0 -570 3 -19 7 -39 7 -45 2 -11
-14 -11 -103 -1 -61 6 -162 24 -167 30 -2 2 1 23 6 47 15 70 22 137 22 208 -1
131 -11 162 -99 330 -58 112 -75 154 -75 185 0 58 49 206 78 239 14 15 62 51
107 79 196 121 309 236 385 393 55 114 112 139 168 74z m660 -243 c83 -35 123
-81 140 -162 25 -119 14 -150 -125 -349 -82 -117 -102 -199 -63 -263 18 -29
97 -125 134 -161 33 -34 88 -108 108 -146 14 -28 21 -62 23 -117 1 -43 0 -79
-2 -81 -3 -2 -59 -14 -125 -26 -153 -28 -162 -30 -207 -36 -21 -3 -54 -7 -73
-10 l-35 -5 5 63 c17 216 8 281 -65 432 -99 206 -119 283 -115 439 2 81 9 130
25 181 38 119 90 209 139 242 51 34 154 33 236 -1z m1232 -101 c119 -50 282
-225 363 -391 22 -44 40 -85 40 -90 -1 -9 -228 -180 -254 -190 -24 -9 -30 33
-28 184 2 168 -1 176 -93 274 -78 82 -112 127 -126 167 -20 57 23 77 98 46z
m-2807 -143 c22 -8 21 -9 -16 -27 -55 -26 -195 -110 -220 -132 -12 -10 -40
-33 -63 -52 -24 -21 -105 -130 -203 -278 -89 -133 -166 -243 -170 -243 -10 0
-203 111 -293 168 l-78 50 94 44 c129 62 200 109 262 175 103 112 168 173 220
207 56 37 133 73 175 81 15 3 43 9 62 13 43 10 198 6 230 -6z m1933 -28 c49
-45 77 -98 125 -240 76 -223 141 -321 264 -400 37 -24 70 -44 73 -44 2 0 29
-15 61 -34 49 -30 54 -35 38 -44 -42 -22 -244 -105 -324 -134 -82 -29 -273
-87 -277 -84 -1 1 -3 32 -4 69 -3 91 -26 137 -137 274 -109 134 -122 158 -128
229 -7 85 26 137 136 216 36 25 75 56 86 69 25 28 44 80 44 120 0 36 8 36 43
3z m-949 -271 c11 -108 47 -219 115 -358 61 -125 101 -230 115 -305 3 -14 10
-51 16 -84 9 -43 9 -61 0 -70 -12 -12 -523 -16 -535 -4 -16 16 -26 397 -12
499 20 157 53 213 198 344 31 28 62 61 69 75 l14 25 7 -35 c4 -19 10 -58 13
-87z m-1006 23 c36 -18 51 -44 88 -148 35 -97 66 -156 103 -197 35 -40 61
-118 68 -212 6 -73 -3 -187 -16 -208 -16 -26 -445 104 -676 206 -55 24 -106
47 -114 52 -11 7 2 36 65 140 141 235 216 315 340 366 62 25 95 25 142 1z"/>
</g>
</svg>
